<svg width="202" height="148" viewBox="0 0 202 148" fill="none" xmlns="http://www.w3.org/2000/svg">
<g clip-path="url(#clip0_1_2)">
<path d="M124.961 74.6693C124.961 74.6693 124.954 74.6693 124.95 74.6731C124.935 74.6923 124.923 74.7076 124.923 74.7076C124.923 74.7076 124.946 74.6846 124.965 74.6693H124.961Z" fill="#0071BD"/>
<path d="M145.047 14.3525L144.948 12.2603L143.134 11.2106C135.076 6.54354 121.803 0.8231 104.353 0.080613C82.4328 -0.852068 65.8969 6.64961 57.9893 11.2069L56.1678 12.2567L56.069 14.3561C55.7106 22.0004 56.2848 29.685 57.7698 37.1976C60.0924 48.9494 64.0133 59.0004 69.4265 67.0727C76.043 76.9481 85.1614 81.7359 94.8174 86.8089L96.2182 87.5441C97.5569 88.25 99.0565 88.6012 100.56 88.6012C102.063 88.6012 103.563 88.25 104.901 87.5441C108.808 85.4886 112.952 83.305 116.953 80.7227C115.94 81.3775 108.8 78.4733 107.487 77.8296C104.031 76.1362 101.602 73.3089 99.3162 70.2694C96.6608 66.7362 92.4802 61.173 91.8364 53.2288C91.0574 43.635 97.4984 30.4165 108.559 30.2995C112.718 30.2556 115.742 32.5013 116.876 33.4486C117.048 32.1758 117.396 28.3536 115.113 24.5498C111.642 18.7635 105.095 18.021 104.334 17.9442C103.767 16.5397 102.356 13.599 99.2174 11.2362C97.0668 9.6159 94.9417 8.90267 93.5921 8.56618C101.021 7.8749 111.778 7.86392 123.913 11.4374C129.136 12.9736 133.661 14.8938 137.457 16.825C137.6 23.1489 137.051 29.4875 135.822 35.7017C133.401 47.9363 129.487 57.5667 124.18 64.3295C120.951 68.4479 116.755 71.7361 112.308 74.5671C113.668 75.0499 115.629 75.5765 118.025 75.6716C121.013 75.7887 123.431 75.1888 124.956 74.6768C125.321 74.2671 129.795 69.622 130.223 69.077C136.28 61.3559 140.698 50.6283 143.357 37.1976C144.842 29.685 145.416 22.0004 145.058 14.3561L145.047 14.3525ZM71.0505 34.3155C68.3914 39.0155 68.1207 43.507 68.1427 45.7454C67.5319 43.0498 66.9211 40.3505 66.3066 37.6548C66.5114 36.6161 66.9028 35.3652 67.6599 34.0851C70.1873 29.7947 74.8104 28.5768 76.0394 28.2915C74.5946 29.5204 72.6598 31.4772 71.0505 34.3191V34.3155ZM91.8291 76.085C89.5175 75.0462 84.6091 72.4091 81.8549 66.941C77.8279 58.9529 80.0627 48.2289 87.6741 40.3395C86.3172 43.1156 83.7642 49.2932 84.3494 57.3801C85.059 67.1568 89.9199 73.7441 91.8291 76.085ZM97.8714 17.3846C98.9212 17.6699 99.7917 18.0649 100.476 18.4453C99.1113 19.1695 97.7434 19.8937 96.3791 20.6179L92.2241 17.2712C93.4202 17.0115 95.4867 16.7409 97.8714 17.3882V17.3846Z" fill="#EF4444"/>
<path d="M125.848 15.7458L127.999 21.9308L134.546 22.0625L129.327 26.02L131.221 32.2854L125.848 28.5474L120.472 32.2854L122.37 26.02L117.151 22.0625L123.698 21.9308L125.848 15.7458Z" fill="#EF4444"/>
<path d="M124.971 35.8259L125.932 38.5911L128.859 38.6532L126.525 40.4198L127.374 43.2252L124.971 41.55L122.567 43.2252L123.416 40.4198L121.083 38.6532L124.009 38.5911L124.971 35.8259Z" fill="#EF4444"/>
<path d="M121.083 47.0144L121.562 48.397L123.025 48.4262L121.858 49.3114L122.282 50.7122L121.083 49.8746L119.879 50.7122L120.303 49.3114L119.137 48.4262L120.6 48.397L121.083 47.0144Z" fill="#EF4444"/>
</g>
<path d="M53.7383 109.791V104.131L56.0583 102.791H61.1183L63.4383 104.131V106.791H60.6383V105.191H56.5383V108.531H61.1183L63.4383 109.871V115.651L61.1183 116.991H55.8583L53.5383 115.651V112.991H56.3383V114.591H60.6383V111.131H56.0583L53.7383 109.791ZM87.5664 112.791H90.3664V115.651L88.0464 116.991H82.3864L80.0664 115.651V104.131L82.3864 102.791H88.0464L90.3664 104.131V106.991H87.5664V105.191H82.8664V114.591H87.5664V112.791ZM101.663 102.891H104.463V115.651L102.143 116.991H95.8825L93.5625 115.651V102.891H96.3625V114.391H101.663V102.891ZM118.479 116.891H115.399L112.399 111.611H110.659V116.891H107.859V102.891H115.439L117.759 104.231V110.271L115.439 111.611L118.479 116.891ZM110.659 105.291V109.211H114.959V105.291H110.659ZM121.16 116.891V102.891H123.96V116.891H121.16ZM132.732 105.291V116.891H129.932V105.291H126.152V102.891H136.512V105.291H132.732ZM141.819 116.891V110.911L137.319 102.891H140.359L143.199 108.131H143.239L146.099 102.891H149.139L144.619 110.931V116.891H141.819Z" fill="white"/>
<path d="M74.3438 116.991H69.1638L66.8438 115.651V112.791H69.6438V114.591H73.8638V110.851H70.3638V108.451H73.8638V105.191H69.6438V106.991H66.8438V104.131L69.1638 102.791H74.3438L76.6638 104.131V108.631L74.9238 109.631V109.671L76.6638 110.671V115.651L74.3438 116.991Z" fill="#EF4444"/>
<defs>
<clipPath id="clip0_1_2">
<rect width="89.1862" height="88.601" fill="white" transform="translate(55.9668)"/>
</clipPath>
</defs>
</svg>
