<svg width="162" height="121" viewBox="0 0 162 121" fill="none" xmlns="http://www.w3.org/2000/svg">
<g clip-path="url(#clip0_1_54)">
<path d="M100.475 60.0381C100.475 60.0381 100.469 60.0381 100.466 60.0412C100.454 60.0566 100.445 60.0689 100.445 60.0689C100.445 60.0689 100.463 60.0504 100.478 60.0381H100.475Z" fill="#0071BD"/>
<path d="M116.625 11.5401L116.546 9.85796L115.087 9.01393C108.608 5.26136 97.9358 0.661812 83.9048 0.0648123C66.2801 -0.685113 52.9844 5.34664 46.6262 9.01098L45.1616 9.85502L45.0822 11.5431C44.794 17.6895 45.2557 23.8683 46.4497 29.9089C48.3172 39.358 51.4698 47.4395 55.8223 53.9301C61.1424 61.8705 68.474 65.7201 76.238 69.7991L77.3643 70.3902C78.4407 70.9578 79.6464 71.2401 80.8551 71.2401C82.0638 71.2401 83.2696 70.9578 84.346 70.3902C87.4868 68.7374 90.8189 66.9817 94.0362 64.9054C93.2216 65.4319 87.481 63.0968 86.4252 62.5792C83.646 61.2176 81.6933 58.9443 79.8552 56.5004C77.7202 53.6595 74.3587 49.1864 73.8411 42.7988C73.2147 35.0849 78.3936 24.4565 87.2869 24.3624C90.6306 24.3271 93.0628 26.1328 93.9744 26.8945C94.1127 25.8711 94.392 22.7979 92.5569 19.7393C89.766 15.0869 84.5018 14.4899 83.8901 14.4281C83.4343 13.2988 82.2991 10.9343 79.7758 9.03451C78.0466 7.7317 76.3379 7.15823 75.2528 6.88767C81.2257 6.33184 89.8748 6.32302 99.6327 9.19626C103.832 10.4314 107.47 11.9754 110.523 13.5282C110.637 18.613 110.196 23.7095 109.208 28.7061C107.261 38.5434 104.115 46.2867 99.8474 51.7244C97.2506 55.0358 93.8774 57.6797 90.3013 59.9559C91.3953 60.3441 92.9716 60.7676 94.8979 60.8441C97.3006 60.9382 99.2445 60.4559 100.471 60.0442C100.765 59.7148 104.362 55.9799 104.706 55.5417C109.576 49.3335 113.128 40.7078 115.266 29.9089C116.46 23.8683 116.922 17.6895 116.634 11.5431L116.625 11.5401ZM57.1281 27.5915C54.9901 31.3705 54.7724 34.9819 54.7901 36.7818C54.299 34.6143 53.8078 32.444 53.3138 30.2765C53.4784 29.4413 53.7931 28.4355 54.4019 27.4062C56.434 23.9566 60.1513 22.9772 61.1395 22.7479C59.9778 23.736 58.4221 25.3094 57.1281 27.5944V27.5915ZM73.8353 61.1764C71.9766 60.3412 68.0299 58.2208 65.8155 53.8242C62.5775 47.4013 64.3744 38.7786 70.4944 32.4351C69.4033 34.6673 67.3506 39.6344 67.8211 46.1367C68.3917 53.9977 72.3001 59.2942 73.8353 61.1764ZM78.6936 13.9781C79.5376 14.2075 80.2376 14.5251 80.7875 14.831C79.6906 15.4133 78.5907 15.9956 77.4937 16.5779L74.1529 13.887C75.1145 13.6782 76.7761 13.4605 78.6936 13.9811V13.9781Z" fill="#EF4444"/>
<path d="M101.188 12.6604L102.918 17.6334L108.182 17.7393L103.985 20.9213L105.509 25.9591L101.188 22.9535L96.8654 25.9591L98.3917 20.9213L94.1951 17.7393L99.4593 17.6334L101.188 12.6604Z" fill="#EF4444"/>
<path d="M100.483 28.8059L101.256 31.0292L103.609 31.0792L101.733 32.4997L102.415 34.7553L100.483 33.4084L98.5506 34.7553L99.2329 32.4997L97.3566 31.0792L99.7093 31.0292L100.483 28.8059Z" fill="#EF4444"/>
<path d="M97.3565 37.8022L97.7418 38.9139L98.9181 38.9374L97.98 39.6491L98.3212 40.7755L97.3565 40.102L96.389 40.7755L96.7301 39.6491L95.792 38.9374L96.9683 38.9139L97.3565 37.8022Z" fill="#EF4444"/>
</g>
<path d="M22.2485 90.125V83.05L25.1485 81.375H31.4735L34.3735 83.05V86.375H30.8735V84.375H25.7485V88.55H31.4735L34.3735 90.225V97.45L31.4735 99.125H24.8985L21.9985 97.45V94.125H25.4985V96.125H30.8735V91.8H25.1485L22.2485 90.125ZM64.5337 93.875H68.0337V97.45L65.1337 99.125H58.0587L55.1587 97.45V83.05L58.0587 81.375H65.1337L68.0337 83.05V86.625H64.5337V84.375H58.6587V96.125H64.5337V93.875ZM82.1538 81.5H85.6538V97.45L82.7538 99.125H74.9288L72.0288 97.45V81.5H75.5288V95.875H82.1538V81.5ZM103.175 99H99.3249L95.5749 92.4H93.3999V99H89.8999V81.5H99.3749L102.275 83.175V90.725L99.3749 92.4L103.175 99ZM93.3999 84.5V89.4H98.7749V84.5H93.3999ZM106.526 99V81.5H110.026V99H106.526ZM120.99 84.5V99H117.49V84.5H112.765V81.5H125.715V84.5H120.99ZM132.349 99V91.525L126.724 81.5H130.524L134.074 88.05H134.124L137.699 81.5H141.499L135.849 91.55V99H132.349Z" fill="white"/>
<path d="M48.0054 99.125H41.5304L38.6304 97.45V93.875H42.1304V96.125H47.4054V91.45H43.0304V88.45H47.4054V84.375H42.1304V86.625H38.6304V83.05L41.5304 81.375H48.0054L50.9054 83.05V88.675L48.7304 89.925V89.975L50.9054 91.225V97.45L48.0054 99.125Z" fill="#EF4444"/>
<defs>
<clipPath id="clip0_1_54">
<rect width="71.7105" height="71.24" fill="white" transform="translate(45)"/>
</clipPath>
</defs>
</svg>
